<svg id="Layer_1" data-name="Layer 1" xmlns="http://www.w3.org/2000/svg" viewBox="0 0 491.38 577.51"><defs><style>.cls-1{fill:#35276c;}.cls-2{fill:#1d203f;}.cls-3{fill:#e9a024;}</style></defs><path class="cls-1" d="M276.08,265.32,339.43,242q45.58,21.14,69.8,61.13a159.65,159.65,0,0,1,17.27,41l-105.78,34.5q-2.07-34.87-11.34-61.47-12-34.12-34.65-52.47"/><path class="cls-2" d="M321.35,399.2q0,47.9-12,82t-34.65,52.47Q252.05,552,220,552H180.74V424.31L76.3,458.38v81.93A32.76,32.76,0,0,1,66.37,563a30.89,30.89,0,0,1-22.67,9.42H37.08v5.1H230.16q63.68,0,109.27-21.15t69.8-61.13q24.18-40,24.2-96a209.58,209.58,0,0,0-6.93-55.05l-105.78,34.5C321.12,385.29,321.35,392.11,321.35,399.2Z"/><polygon class="cls-1" points="180.74 246.37 180.74 424.31 76.3 458.38 76.3 220.9 95.16 220.9 180.74 246.37"/><path class="cls-2" d="M420.63,103.92s-6.1-28-14.74-42.86c0,0-14.19-30.47-49.42-46.86,0,0-53.56-26.12-92-7.51-.35.17-.69.35-1,.54-4.71,2.7-40.78,24.39-82.45,79.6,0,0-32.85,42.82-54.25,82.66l-3.84,7.17s-1.67,3.61-5.25,3c0,0-43.1-2.8-65.43.35,0,0-51,4.37-52.1,28.88,0,0-2.34,13.9,16.29,22.21,0,0,26.75,11,38.25,13.56,0,0,29,8.09,31,8.68,0,0,41.7,12.78,44.06,14.42,0,0,45.64,15.8,52.6,18,0,0,46.39,14,70.39,16.22,0,0,53.52,9.37,98.68-2.4,0,0,33.49-8.08,43.17-13.66,0,0,41.41-15,5.64-39,0,0-26.27-17.41-66.22-29.62,0,0-10-3-12.2-4.94,0,0-4.43-1.44-3.82-10.41,0,0-2.34-54.69-3.11-74.5a34.09,34.09,0,0,1,3.95-17.82c1.66-3,3.81-5.75,6.43-6.63,0,0,26.95-9.48,33.39-10.86,0,0,15.45-5.43,27.49,3.38,0,0,3.86,2,9.26,8.66a9.83,9.83,0,0,0,.67.76c1.6,1.62,8.48,8.61,10.88,10.78,0,0,9.7,11.14,15.07,2.59C422,118.22,423.69,116.44,420.63,103.92ZM207,163.77l8.28-15a1.57,1.57,0,0,0,0-1.46L207.62,132a1.57,1.57,0,0,1,1.69-2.24l16.85,3.23a1.55,1.55,0,0,0,1.39-.43l12.22-12a1.56,1.56,0,0,1,2.65.92l2.13,17a1.6,1.6,0,0,0,.84,1.2l15.23,7.89a1.56,1.56,0,0,1-.05,2.8L245,157.58a1.56,1.56,0,0,0-.88,1.16l-2.79,16.93a1.57,1.57,0,0,1-2.69.82L227,164a1.58,1.58,0,0,0-1.38-.47l-17,2.57A1.57,1.57,0,0,1,207,163.77Zm59.51,85.76c-.21,4.36-4.91,4.79-4.91,4.79-1.72.36-11.4-1.2-11.4-1.2-14-.36-53.46-9.18-53.46-9.18-61.07-18.68-46.22-26.88-46.22-26.88,4.42-3.23,7-.7,7-.7,2.77,2.94,14.42,9,14.42,9C183.39,232,225,239.62,225,239.62c3.35,1,37.06,4.83,37.06,4.83C267.4,246.27,266.51,249.53,266.51,249.53Z"/><polygon class="cls-3" points="392.87 223.99 425.9 235.87 434.84 269.81 456.34 242.06 491.38 244.05 471.64 215.03 484.36 182.32 450.66 192.12 423.48 169.92 422.39 205 392.87 223.99"/></svg>