<?xml version="1.0" encoding="UTF-8"?>
<svg id="_레이어_1" data-name="레이어_1" xmlns="http://www.w3.org/2000/svg" version="1.1" viewBox="0 0 1994 1994">
  <!-- Generator: Adobe Illustrator 29.8.5, SVG Export Plug-In . SVG Version: 2.1.1 Build 2)  -->
  <defs>
    <style>
      .st0 {
        fill: #cbd758;
      }
    </style>
  </defs>
  <path class="st0" d="M1745.21,264.37c0-1.96-.01-3.93-.04-5.89-.02-1.52-.07-3.04-.1-4.56-.05-2.35-.1-4.71-.18-7.06-.03-1.07-.08-2.14-.12-3.21-.43-11.64-1.17-23.33-2.23-35.06-5.59-1.06-11.22-2.05-16.88-2.96-3.77-.61-7.55-1.19-11.35-1.74-4.92-.71-9.87-1.36-14.84-1.96-11.38-1.38-22.9-2.47-34.52-3.28-.95-.07-1.9-.13-2.85-.19-15.5-1.01-31.2-1.51-47.03-1.5-9.01.01-18.06.19-27.15.53-5.22.2-10.46.45-15.7.76-1.2.07-2.41.15-3.62.23-1.07.07-2.13.14-3.2.22-3.67.25-7.34.53-11.02.84-2.48.21-4.97.43-7.45.66-24.47,2.3-49.1,5.82-73.74,10.6-2.08.4-4.16.82-6.24,1.24-2.6.53-5.2,1.06-7.8,1.62-.62.13-1.24.27-1.86.41-.8.17-1.6.35-2.4.52-2.66.59-5.32,1.19-7.98,1.8-22.76,5.26-45.47,11.61-68.01,19.07-1.26.42-2.51.84-3.76,1.26-1.14.39-2.29.76-3.43,1.15-6.89,2.36-13.76,4.83-20.61,7.4-6.38,2.39-12.74,4.88-19.08,7.45-27.64,11.24-54.86,24.25-81.42,39.05-2.77,1.54-5.52,3.1-8.27,4.68-1.68.97-3.36,1.93-5.04,2.91-1.3.76-2.59,1.54-3.89,2.3-6.12,3.63-12.19,7.36-18.23,11.19-1.16.74-2.32,1.48-3.48,2.22-4.08,2.62-8.14,5.27-12.17,7.98-.93.62-1.85,1.26-2.77,1.89-.28.19-.55.38-.83.57-1.42.97-2.85,1.93-4.26,2.91-4.38,3.03-8.73,6.12-13.05,9.25-11.52,8.35-22.85,17.09-33.98,26.22-.95.78-1.89,1.56-2.83,2.35-1.03.86-2.07,1.7-3.09,2.56-2.99,2.51-5.97,5.05-8.93,7.62-2.96,2.57-5.88,5.21-8.77,7.88-4.64,4.28-9.2,8.67-13.66,13.18-.82.83-1.63,1.67-2.44,2.51-.6.62-1.2,1.23-1.8,1.85-1.15,1.2-2.28,2.41-3.42,3.62-5.05,5.39-9.96,10.92-14.74,16.6-1.23,1.46-2.46,2.93-3.68,4.42-4.52,5.52-8.93,11.17-13.19,16.95-14.73,19.94-27.9,41.35-39.31,63.94-1.12,2.22-2.22,4.45-3.31,6.7-.4.84-.81,1.67-1.21,2.51-.17.37-.36.73-.53,1.1-.46.98-.91,1.97-1.37,2.95-.85,1.84-1.7,3.68-2.53,5.53-.83,1.85-1.65,3.7-2.45,5.56-.7,1.62-1.38,3.24-2.06,4.87-1.5,3.57-2.96,7.15-4.37,10.77-.21.54-.41,1.09-.62,1.63-3.2,8.3-6.17,16.73-8.9,25.27-.22.68-.44,1.36-.66,2.05-.65,2.08-1.29,4.16-1.91,6.25-.77,2.56-1.5,5.13-2.22,7.71-.73-2.58-1.46-5.15-2.22-7.71-.63-2.09-1.26-4.18-1.91-6.25-.22-.68-.44-1.37-.66-2.05-2.74-8.54-5.7-16.97-8.9-25.27-.21-.54-.41-1.09-.62-1.63-1.41-3.62-2.88-7.2-4.37-10.77-.68-1.63-1.36-3.26-2.06-4.87-.81-1.86-1.63-3.71-2.45-5.56-.83-1.85-1.68-3.69-2.53-5.53-.46-.98-.9-1.97-1.37-2.95-.17-.37-.35-.73-.53-1.1-.4-.84-.81-1.67-1.21-2.51-1.09-2.24-2.19-4.47-3.31-6.7-11.41-22.6-24.57-44.01-39.31-63.94-4.27-5.78-8.67-11.42-13.19-16.95-1.22-1.48-2.44-2.95-3.68-4.42-4.78-5.68-9.7-11.21-14.74-16.6-1.13-1.21-2.27-2.42-3.42-3.62-.6-.62-1.2-1.23-1.8-1.85-.81-.84-1.62-1.68-2.44-2.51-4.46-4.51-9.02-8.9-13.66-13.18-2.89-2.67-5.81-5.3-8.77-7.88-2.96-2.57-5.94-5.11-8.93-7.62-1.03-.86-2.06-1.71-3.09-2.56-.94-.78-1.89-1.57-2.83-2.35-11.12-9.14-22.45-17.87-33.98-26.22-4.33-3.14-8.68-6.23-13.05-9.25-1.42-.98-2.84-1.94-4.26-2.91-.28-.19-.55-.38-.83-.57-.93-.63-1.85-1.27-2.77-1.89-4.04-2.71-8.1-5.36-12.17-7.98-1.16-.74-2.32-1.49-3.48-2.22-6.04-3.83-12.11-7.56-18.23-11.19-1.3-.77-2.59-1.54-3.89-2.3-1.67-.98-3.36-1.94-5.04-2.91-2.75-1.58-5.51-3.14-8.27-4.68-26.56-14.8-53.78-27.82-81.42-39.05-6.34-2.58-12.7-5.06-19.08-7.45-6.85-2.57-13.72-5.04-20.61-7.4-1.14-.39-2.29-.77-3.43-1.15-1.25-.42-2.51-.85-3.76-1.26-22.54-7.47-45.25-13.81-68.01-19.07-2.66-.62-5.32-1.22-7.98-1.8-.8-.18-1.6-.35-2.4-.52-.62-.13-1.24-.27-1.86-.41-2.6-.56-5.2-1.09-7.8-1.62-2.08-.42-4.16-.84-6.24-1.24-24.64-4.79-49.27-8.31-73.74-10.6-2.49-.23-4.97-.46-7.45-.66-3.68-.31-7.35-.59-11.02-.84-1.07-.07-2.13-.15-3.2-.22-1.21-.08-2.41-.16-3.62-.23-5.25-.31-10.48-.56-15.7-.76-9.09-.35-18.14-.52-27.15-.53-15.84-.02-31.53.48-47.03,1.5-.95.06-1.9.13-2.85.19-11.62.81-23.13,1.9-34.52,3.28-4.97.6-9.92,1.25-14.84,1.96-3.8.55-7.58,1.13-11.35,1.74-5.66.92-11.29,1.9-16.88,2.96-1.07,11.74-1.8,23.42-2.23,35.06-.04,1.07-.09,2.14-.12,3.21-.08,2.36-.13,4.71-.18,7.06-.03,1.52-.08,3.04-.1,4.56-.03,1.97-.03,3.93-.04,5.89,0,1.22-.02,2.43-.02,3.65,0,1.26.02,2.51.03,3.77,0,.33,0,.66,0,.98.16,19.41,1.2,38.67,3.14,57.79.23,2.28.46,4.56.72,6.84.49,4.33,1.03,8.65,1.61,12.96.01.09.02.18.04.26.24,1.82.48,3.64.74,5.46.52,3.66,1.09,7.31,1.68,10.95.35,2.18.72,4.35,1.1,6.52.84,4.84,1.73,9.66,2.68,14.48,1.85,9.38,3.92,18.73,6.22,28.03.39,1.56.78,3.13,1.17,4.69,2.09,8.21,4.35,16.38,6.78,24.52.26.88.53,1.76.79,2.64.44,1.45.87,2.89,1.32,4.34,2.04,6.54,4.19,13.06,6.44,19.56,1.29,3.73,2.63,7.44,3.99,11.15,5.11,13.9,10.73,27.7,16.85,41.39.44.99.89,1.98,1.34,2.96.67,1.47,1.34,2.94,2.02,4.4,2.29,4.95,4.64,9.89,7.06,14.82,17.84,36.29,39.28,71.8,64.28,106.45,3.37,4.67,6.79,9.32,10.28,13.96,7.62,10.1,15.55,20.11,23.78,30.06,2.28,2.76,4.58,5.51,6.91,8.25,1.05,1.24,2.09,2.47,3.15,3.71,1.69,1.97,3.4,3.93,5.11,5.89,3.1,3.55,6.23,7.1,9.41,10.63,1.09,1.21,2.19,2.42,3.29,3.63.47.52.95,1.04,1.43,1.56,4.16,4.56,8.38,9.1,12.67,13.62,1.2,1.27,2.42,2.53,3.63,3.79,4.35,4.53,8.76,9.05,13.24,13.54h0c4.15,4.16,8.35,8.3,12.61,12.43,6.19,6,12.48,11.96,18.91,17.89,1.81,1.67,3.64,3.32,5.48,4.95,8.29,7.34,16.94,14.31,25.91,20.93.6.44,1.21.89,1.81,1.33,2.06,1.5,4.13,2.98,6.23,4.44,9.15,6.39,18.6,12.41,28.35,18.04,13.23,7.64,26.98,14.57,41.18,20.77,2.21.96,4.43,1.9,6.66,2.83,7.28,3.03,14.68,5.86,22.17,8.5,1.1.39,2.2.76,3.3,1.14,3,1.03,6.02,2.03,9.05,2.99,9.3,2.96,18.74,5.63,28.3,7.99,2.11.52,4.22,1.03,6.33,1.52,5.23,1.21,10.49,2.33,15.79,3.35,1.48.29,2.97.56,4.46.83.91.17,1.81.34,2.71.5,3.05.54,6.11,1.04,9.17,1.52.93.15,1.87.28,2.81.42,3.11.47,6.22.9,9.35,1.3,1.34.17,2.69.35,4.03.51,9.1,1.09,18.27,1.9,27.5,2.46,2.18.13,4.37.25,6.55.35,1.4.06,2.8.12,4.2.18,4.35.16,8.71.25,13.08.29,1.85.02,3.69.04,5.55.03,7.14-.02,14.31-.22,21.5-.57,2.19-.11,4.39-.23,6.59-.37,3.62-.23,7.25-.49,10.88-.81,3.73-.32,7.47-.67,11.21-1.08,1.02-.11,2.04-.24,3.07-.36,2.77-.32,5.54-.67,8.31-1.04,1.1-.15,2.19-.29,3.29-.45,14.14-2,28.31-4.65,42.47-7.96v812.98c0,53.32,43.62,96.94,96.94,96.94h0c53.32,0,96.94-43.62,96.94-96.94v-812.98c14.15,3.32,28.32,5.97,42.47,7.96,1.1.15,2.19.3,3.29.45,2.77.37,5.54.72,8.31,1.04,1.02.12,2.05.25,3.07.36,3.74.41,7.48.76,11.21,1.08,3.63.31,7.26.58,10.88.81,2.2.14,4.4.26,6.59.37,7.19.35,14.36.55,21.5.57,1.85,0,3.7-.01,5.55-.03,4.37-.04,8.73-.13,13.08-.29,1.4-.05,2.8-.11,4.2-.18,2.19-.1,4.37-.22,6.55-.35,9.23-.55,18.41-1.36,27.5-2.46,1.35-.16,2.69-.34,4.03-.51,3.13-.4,6.24-.84,9.35-1.3.94-.14,1.87-.27,2.81-.42,3.07-.48,6.13-.98,9.17-1.52.91-.16,1.81-.34,2.71-.5,1.49-.27,2.98-.54,4.46-.83,5.3-1.03,10.56-2.14,15.79-3.35,2.12-.49,4.23-1,6.33-1.52,9.57-2.36,19-5.03,28.3-7.99,3.03-.97,6.05-1.96,9.05-2.99,1.1-.38,2.2-.75,3.3-1.14,7.5-2.64,14.89-5.47,22.17-8.5,2.23-.93,4.45-1.87,6.66-2.83,14.2-6.19,27.95-13.12,41.18-20.77,9.75-5.63,19.2-11.66,28.35-18.04,2.09-1.46,4.17-2.94,6.23-4.44.61-.44,1.21-.88,1.81-1.33,8.97-6.61,17.63-13.59,25.91-20.93,1.84-1.63,3.67-3.28,5.48-4.95,6.43-5.93,12.72-11.9,18.91-17.89,4.26-4.13,8.46-8.27,12.61-12.43h0c4.48-4.5,8.89-9.01,13.24-13.54,1.21-1.26,2.43-2.53,3.63-3.79,4.29-4.52,8.51-9.06,12.67-13.62.48-.52.95-1.04,1.43-1.56,1.1-1.21,2.2-2.42,3.29-3.63,3.18-3.53,6.31-7.08,9.41-10.63,1.71-1.96,3.42-3.92,5.11-5.89,1.06-1.23,2.1-2.47,3.15-3.71,2.33-2.75,4.63-5.5,6.91-8.25,8.23-9.94,16.16-19.96,23.78-30.06,3.5-4.63,6.91-9.29,10.28-13.96,25-34.65,46.44-70.16,64.28-106.45,2.42-4.92,4.77-9.86,7.06-14.82.68-1.47,1.35-2.93,2.02-4.4.45-.99.9-1.98,1.34-2.96,6.13-13.69,11.74-27.49,16.85-41.39,1.37-3.71,2.7-7.43,3.99-11.15,2.26-6.5,4.41-13.02,6.44-19.56.45-1.44.88-2.89,1.32-4.34.27-.88.53-1.76.79-2.64,2.43-8.14,4.69-16.31,6.78-24.52.4-1.56.79-3.12,1.17-4.69,2.29-9.3,4.36-18.65,6.22-28.03.95-4.82,1.85-9.64,2.68-14.48.38-2.17.74-4.35,1.1-6.52.59-3.65,1.15-7.3,1.68-10.95.26-1.82.5-3.64.74-5.46.01-.09.02-.18.04-.26.58-4.31,1.12-8.63,1.61-12.96.26-2.28.49-4.56.72-6.84,1.93-19.12,2.98-38.38,3.14-57.79,0-.33,0-.66,0-.98,0-1.26.03-2.51.03-3.77,0-1.21-.02-2.43-.02-3.65ZM715.33,412.74c-.15.1-.32.19-.45.29.13-.1.3-.19.45-.29ZM715.69,412.51s0,0,0,0c.45.36.98.63,1.5.74-.53-.12-1.06-.38-1.5-.74Z"/>
</svg>