<?xml version="1.0" encoding="UTF-8"?><svg id="Layer_1" xmlns="http://www.w3.org/2000/svg" viewBox="0 0 380.6 447.31"><defs><style>.cls-1{fill:#bd9644;}</style></defs><path class="cls-1" d="M330.34,266.56c-3.11-11.47-7.53-22.08-13.37-31.74-2.99-4.95-6.32-9.61-9.94-14,5.89-2.55,27.07-13.43,2.95-29.64,0,0-20.35-13.49-51.29-22.95,0,0-7.74-2.29-9.45-3.82,0,0-3.43-1.12-2.95-8.07,0,0-1.81-42.35-2.42-57.7-.19-4.8.76-9.59,3.06-13.8,1.29-2.35,2.95-4.45,4.98-5.13,0,0,20.88-7.34,25.86-8.41,0,0,11.97-4.21,21.29,2.62,0,0,2.99,1.58,7.17,6.71.17.2.33.4.52.58,1.24,1.26,6.57,6.67,8.42,8.35,0,0,7.51,8.62,11.68,2,0,0,1.32-1.37-1.05-11.07,0,0-4.73-21.69-11.42-33.2,0,0-10.99-23.6-38.28-36.29,0,0-41.48-20.24-71.28-5.82-.27.13-.54.27-.8.42-3.65,2.09-31.59,18.89-63.86,61.65,0,0-25.44,33.16-42.02,64.03l-2.98,5.55s-1.29,2.8-4.06,2.29c0,0-33.38-2.17-50.68.27,0,0-39.54,3.39-40.35,22.37,0,0-1.81,10.77,12.62,17.2,0,0,20.72,8.49,29.62,10.51,0,0,9.69,2.7,16.79,4.69v224.35c-.26,6.85-2.83,12.7-7.69,17.56-4.87,4.87-10.72,7.3-17.56,7.3h-5.13v3.95h149.55c32.88,0,61.09-5.45,84.64-16.38,23.54-10.91,41.56-26.7,54.06-47.35,12.49-20.65,18.74-45.44,18.74-74.38,0-15.4-1.83-29.59-5.37-42.64ZM160.34,126.85l6.41-11.64c.19-.35.2-.77.02-1.13l-5.96-11.88c-.45-.9.32-1.92,1.31-1.73l13.05,2.5c.39.08.79-.05,1.08-.33l9.46-9.34c.71-.71,1.93-.29,2.05.71l1.66,13.19c.05.4.29.74.64.92l11.8,6.11c.89.46.87,1.74-.04,2.17l-12.03,5.65c-.36.17-.61.51-.68.9l-2.16,13.11c-.16.99-1.39,1.36-2.08.63l-9.09-9.69c-.27-.29-.67-.43-1.06-.37l-13.14,1.99c-.99.15-1.73-.9-1.24-1.78ZM116.58,168.13c3.43-2.5,5.42-.55,5.42-.55,2.15,2.28,11.18,6.94,11.18,6.94,8.86,5.17,41.11,11.07,41.11,11.07,2.6.8,28.71,3.75,28.71,3.75,4.12,1.4,3.42,3.93,3.42,3.93-.16,3.38-3.8,3.71-3.8,3.71-1.33.28-8.83-.93-8.83-.93-10.86-.28-41.41-7.11-41.41-7.11-47.3-14.46-35.81-20.81-35.81-20.81ZM239.63,372.73c-6.19,17.63-15.13,31.17-26.84,40.64-11.71,9.47-25.84,14.2-42.42,14.2h-30.38v-206.69c.49.16.91.3,1.22.39,0,0,35.93,10.87,54.52,12.56,0,0,17.96,3.14,40.22,2.69,1.3,2.93,2.55,5.94,3.67,9.14,4.8,13.71,7.72,29.6,8.79,47.61.31,5.14.48,10.43.48,15.92,0,24.73-3.1,45.9-9.27,63.53Z"/><polygon class="cls-1" points="304.3 177.55 329.88 186.75 336.81 213.04 353.46 191.55 380.6 193.09 365.31 170.61 375.16 145.28 349.06 152.87 328 135.67 327.16 162.84 304.3 177.55"/></svg>