<?xml version="1.0" encoding="UTF-8"?>
<svg id="_레이어_1" data-name="레이어_1" xmlns="http://www.w3.org/2000/svg" version="1.1" viewBox="0 0 1994 1994">
  <!-- Generator: Adobe Illustrator 29.8.5, SVG Export Plug-In . SVG Version: 2.1.1 Build 2)  -->
  <defs>
    <style>
      .st0 {
        fill: #f29f42;
      }

      .st1 {
        fill: #e48f6c;
      }

      .st2 {
        fill: #f5b595;
      }

      .st3 {
        fill: #367c31;
      }

      .st4 {
        fill: #f9d760;
      }

      .st5 {
        fill: #fef7db;
      }

      .st6 {
        fill: #ec8e59;
      }

      .st7 {
        fill: #508f4a;
      }

      .st8 {
        fill: #f19f41;
      }
    </style>
  </defs>
  <path class="st7" d="M953.01,1345.83c-19.74,133.04-39.48,266.07-59.22,399.11.82,5.66,4.97,10.22,10.34,11.44,6.01,1.36,12.4-1.73,15.22-7.55,12.72-49.2,25.44-98.41,38.16-147.61-1.55,57.78-3.1,115.56-4.66,173.33.63,7.59,6.85,13.44,14.08,13.62,6.6.17,12.67-4.43,14.41-11.12,7.05-76.6,14.11-153.2,21.16-229.8,6.34,75.39,12.68,150.78,19.02,226.18,1.76,9.03,10.24,15.09,18.93,13.94,8.05-1.07,14.4-8.07,14.68-16.56-1.1-41.74-2.2-83.48-3.31-125.22,11.38,35.49,22.76,70.99,34.14,106.48,2.28,7.8,10.49,11.68,16.84,9.24,5.18-1.99,8.58-7.98,7.58-14.32-32.2-173.09-49.37-256.94-55.91-278.22,0,0,0,0,0,0-8.84-30.06-20.36-75.38-27.89-132.99-24.52,3.35-49.04,6.7-73.56,10.05Z"/>
  <path class="st3" d="M956.25,1289.36c-49.18-82.86-98.7-173.71-146.63-272.57-70.64-145.72-125.9-284.23-169.42-411.09,29.93-20.69,79.72-49.54,147.23-65.13,22.93-5.3,79.01-16.24,150.7-7.45,64.61,7.93,114.56,28.54,145.77,44.3,14.13-15.86,35.75-35.08,66.29-47.4,96.7-39,192.08,27.74,201.46,34.52,73.28,23.66,96.26,55.68,104.44,78.94,32.18,91.5-112.09,196.71-310.16,457.61-60.03,79.07-105.2,146.37-133.31,189.71-18.79-.48-37.58-.96-56.36-1.44Z"/>
  <path class="st7" d="M665.2,941.45c-21.83.78-63.81-.8-108.75-23.61-31.71-16.1-49.04-34.72-77.49-65.29-35.94-38.62-33.34-50.07-32.16-53.54,5.12-15.12,30.62-19.05,52.92-22.48,19.38-2.98,49.98-4.95,88.29,4.34-18.8-29.32-31.84-55.67-40.74-75.94-13.63-31.04-28.65-66-33.37-113.77-1.89-19.17-8.66-32.46-1.25-40.93,5.47-6.25,17.54-10.26,49.34-1.76,96.16,25.72,152.11,103.01,152.11,103.01,29.15,40.26,41.06,79.12,49.9,107.95,10.2,33.27,14.81,62.27,17.07,83.39-38.62,32.87-77.25,65.74-115.87,98.62Z"/>
  <path class="st7" d="M783.55,1074.63c33.57,31.3,70.79,70.74,107.27,119.37,25.94,34.58,47.13,67.98,64.42,98.63,10.67-3.05,21.34-6.11,32.01-9.16-6.69-39.77-16.47-84.24-30.85-132.01-12.87-42.76-27.33-81.19-41.89-115.06-9.05-.06-18.1-.12-27.14-.18,8.22,26.23,16.43,52.47,24.63,78.71,9.62,30.8,19.21,61.6,28.79,92.41-14.38-23.22-30.92-47.77-49.93-73.05-24.61-32.72-49.29-61.25-72.69-85.88-11.53,8.73-23.07,17.47-34.6,26.2Z"/>
  <path class="st7" d="M864.69,658.93c22.67,69.72,43.97,146.19,62,229.02,33.18,152.42,47.81,292.04,52.55,412.89,11.31.93,22.62,1.86,33.93,2.78.78-141.6-13.93-312.42-64.96-498.97-15.18-55.51-32.26-107.58-50.39-156.16-11.05,3.48-22.09,6.96-33.14,10.43Z"/>
  <path class="st7" d="M1053.98,377.42c-1.11,154.83-7.75,320.13-22.13,494.56-11.48,139.25-26.86,271.77-44.87,397.04,8.72,2.3,17.43,4.59,26.15,6.89,22.86-161.95,41.32-335.82,52.72-520.54,7.8-126.51,10.79-253.21,10.79-253.21,1.14-48.46,1.58-89.53,1.74-120.18,14.16-14.34,46.31-51.2,46.52-102.09.1-25.2-7.56-69.24-29.78-74.18-19.56-4.35-42.34,23.37-52.33,42.34-28.68,54.47,5.2,118.44,11.19,129.37Z"/>
  <path class="st7" d="M760.83,522.67c-14.2-6.16-47.45-22.91-71.75-60.21-20.42-31.33-23.7-60.58-25.94-80.45-2.34-20.81-6.61-58.77,8.12-65.61,13.25-6.15,35.37,15.92,56.49,37,21.57,21.52,43.26,43.18,56.09,80.44,11.46,33.29,10.34,63.05,7.92,81.53-10.31,2.43-20.61,4.86-30.92,7.29Z"/>
  <path class="st7" d="M1068.03,497.37c11.32-39.24,28.17-67.02,40.18-83.82,4.28-5.99,17.42-23.82,39.07-42.14,19.41-16.43,34.83-29.48,44.93-25.01,14.32,6.34,13.38,45.91,4.51,75.1-14.81,48.77-54.18,76.52-72.41,89.37-21.08,14.86-40.91,23.53-54.96,28.63-.44-14.04-.88-28.09-1.33-42.13Z"/>
  <path class="st7" d="M1061.6,470.62c-.9-17.84-4.71-45.79-19.64-76-17.13-34.67-39.93-54.17-51.47-63.84-16.92-14.17-28.45-23.82-36.78-20.1-15.15,6.76-10.35,53.47-.35,84.44,11.07,34.31,30.41,55.19,35.6,60.57,25.57,26.55,54.17,36.71,67.56,40.56,1.7-8.54,3.39-17.09,5.09-25.63Z"/>
  <path class="st7" d="M1204.57,635.68c17.83-73.86,48.36-126,69.77-156.75,19.07-27.38,47.94-64.25,94.61-91.31,28.89-16.75,53.93-31.27,72.29-21.23,23.71,12.96,20.97,58.5,19.48,83.25-1.58,26.3-8.89,73.27-44.23,126.87,9.08-5.62,22.99-13.24,41.05-19.35,22.89-7.75,59.27-20.06,76.76-7.03,26.83,20,4.07,95.81-14.67,137.15-14.61,32.24-48.47,91.35-127.76,141.54,10.82,1.35,25.38,3.27,42.56,5.88,72.11,10.96,76.91,16.75,78.42,20.61,6.06,15.5-24.84,40.86-52.86,63.47-44.2,35.68-83.01,67-146.92,83.6-49.2,12.78-92.74,11.49-123.77,7.44,14.24-17.44,93.05-117.31,70.72-247.85-10.05-58.78-36.83-101.72-55.43-126.31Z"/>
  <path class="st7" d="M1023.58,1282.7c10.62-15.05,27.9-37.62,52.56-61.85,34.27-33.66,51.58-39.86,91.84-77.07,31.2-28.84,47.5-43.9,62.59-68.88,27.04-44.77,44.1-111.3,22.08-127.55-17.68-13.05-55.65,9.91-80.51,24.94-39.37,23.8-63.74,53.96-76.82,72.95-23.11,33.57-31.7,62.4-46.27,112.92-8.83,30.62-19.03,72.86-25.48,124.54Z"/>
  <path class="st7" d="M1125.39,823.14c-33.17,67.34-68.25,153.43-93.92,256.48-19.33,77.58-29.26,148.51-34.04,209.47,8.88.54,17.75,1.08,26.63,1.62,1.34-64.28,9.85-152.75,40.61-253.14,30.5-99.55,72.54-177.07,107.16-230.88-15.48,5.49-30.96,10.97-46.44,16.46Z"/>
  <path class="st7" d="M1202.04,814.31c-28.73,32.77-60.11,74.24-88.95,125.14-54.68,96.48-77.94,187.49-88.56,252.14-1.17,16.15-2.35,32.3-3.52,48.45,13.82-77.34,43.41-183.67,110.98-293.69,26.11-42.51,53.73-78.79,80.26-109.34-3.4-7.57-6.81-15.13-10.21-22.7Z"/>
  <path class="st3" d="M723.97,795.62c-1.86,1.35-13.06-12.69-62.65-69.19-59.22-67.48-71.59-79.75-70.01-81.41,2.72-2.88,45.37,27.47,82.69,71.61,31.49,37.24,52.91,76.87,49.97,79Z"/>
  <path class="st3" d="M681.99,909.69c-19.96-18.25-50.38-42.56-91.83-63.22-39.84-19.86-71.05-26.96-70.48-28.93.72-2.49,51.94,4.17,104.27,29.31,40.54,19.48,69.36,44.09,87.56,62.27-9.84.19-19.67.38-29.51.57Z"/>
  <path class="st3" d="M1269.23,617.93c14.76-16.41,36.11-41.65,58.82-74.69,39.15-56.95,57.72-101.3,60.31-100.1,2.64,1.22-13.6,48.66-40.45,99.51-23.64,44.77-48.4,78.72-66.28,101.06-4.13-8.6-8.27-17.19-12.4-25.79Z"/>
  <path class="st3" d="M1291.68,790.84c31.68-11.19,75.38-32.08,110.74-73.59,28.83-33.84,42.68-70.28,45.29-69.05,2.67,1.26-8.36,40.96-31.57,76.67-33.46,51.49-81.84,78.68-116.2,93.21-2.76-9.08-5.51-18.16-8.27-27.24Z"/>
  <path class="st3" d="M1253.06,960.79c-1.54-3.07,31.79-24.23,65.09-40.69,54.75-27.08,110.71-42.1,112.27-38.1,2.01,5.13-85.17,43.08-101.3,50.11-23.84,10.38-74.24,32.32-76.06,28.69Z"/>
  <path class="st3" d="M1039.55,1217.42c-2.05-1.41,26.37-52.41,69.14-103.65,34.27-41.06,69.93-72.89,71.69-71.24,1.74,1.63-30.14,35.4-88.15,108.41-37.91,47.71-51.37,67.38-52.68,66.48Z"/>
  <g>
    <path class="st2" d="M767.14,638.16c-43.4,23.39-61.59,67.83-48.24,100.97,9.6,23.83,34.06,37.81,54.82,41.46,41.9,7.37,90.99-23.1,114.82-77.8,25.57,39.22,71.71,56.25,109.51,43.64,24.2-8.07,47.61-29.16,52.83-57.45,6.66-36.09-17.84-75.53-61.03-90.88,52.67-15.2,83.15-60.3,75.96-99.78-4.56-25.03-24.25-47.69-50.26-56.92-34.79-12.35-76.68.81-101.22,33.65,12.04-32.41.51-67.84-26.89-85.98-30.21-20.01-68.04-11.27-90.51,5.44-30.2,22.46-40.73,65.3-23.41,103.29-32.05-18.15-72.53-14-99.14,9.77-25.85,23.09-32.79,59.49-20.39,87.87,16.44,37.62,65.73,58.55,113.16,42.71Z"/>
    <path class="st6" d="M808.55,604.25c-12.06-28.84,6.4-65.58,37.83-72.97,33.44-7.86,69.25,20.42,68.4,53.73-.66,25.78-23.13,49.69-51.7,51.67-23.78,1.65-46.11-12.3-54.53-32.43Z"/>
  </g>
  <path class="st5" d="M1271.06,862.87c4.66,28.59-6.64,57.16-29.2,73.81-23.18,17.12-58.21,21.64-85.21,2.15-24.82-17.91-35.27-50.66-25.43-80.57-29.17,17.31-65.51,16.44-93-2.16-30.83-20.86-44.65-60.04-34.07-95.3,11.63-38.77,50.35-64.74,92.34-60.88-1.95-3.2-27.9-47.5-5.64-91.37,2.41-4.74,19.09-36.49,50.16-42.22,36.12-6.66,80.49,23.89,97.25,78.11,17.91-29.07,53.45-41.83,84.68-30.99,34.17,11.87,53.72,48.72,46.07,82-8.39,36.48-45.2,50.06-47.81,50.98,31.29-1.34,59.63,16.94,70.16,44.61,12.41,32.62-3.21,69.68-33.01,86.06-28.2,15.5-64.29,9.82-87.32-14.23Z"/>
  <path class="st8" d="M1151.19,787.43c-17.92-30.69-6.52-76.62,27.09-90.19,32.03-12.94,70.74,8.94,80.97,41.99,8.66,27.98-3.16,63.71-33.21,75.92-28.98,11.77-61-4-74.84-27.72Z"/>
  <path class="st4" d="M1029.75,972.4c-19.32,28.73-59.42,41.73-101.38,31.54,5.14,7,40.92,57.32,22.2,107.93-3.05,8.26-12.45,33.68-35.76,41.71-29.65,10.22-59.58-15.37-68.28-22.81-27.32-23.36-34.46-54.5-36.54-66.58-18.06,43.92-53.78,70.65-87.65,67.7-3.53-.31-29.09-2.91-41.46-22.39-15.22-23.97-4.19-66.23,32.96-99.38-54.55,12.26-98.33-16.03-103.26-46.53-4.49-27.8,24.02-52.75,27.07-55.36,7.91-4.9,21.11-11.57,38.34-13.77,7.48-.96,20.42-2.47,35.25,2.74,2.6.91,4.71,1.84,6.14,2.51-10.7-9.95-35.86-36.23-39.85-75.4-1.23-11.88-3.1-30.4,8.37-47.99,1.58-2.43,17.32-25.77,44.25-26.6,10.68,2.2,24.42,6.46,38.59,15.1,37.8,23.03,51.35,60.5,55.33,73.26,8.06-47.86,41.17-79.42,73.82-79.28,17.75.08,34.88,9.52,44.77,22.75,20.83,27.86,13.58,77.82-24.37,117.46,57.42-22.65,107.89-9.21,120.83,18.18,11.21,23.72-7.99,53.1-9.4,55.2Z"/>
  <ellipse class="st0" cx="824.97" cy="949.16" rx="60.84" ry="60.05" transform="translate(-55.46 51.2) rotate(-3.44)"/>
  <path class="st1" d="M1226.74,1379.22c5.84-3.4,56.38-33.07,53.92-79.61-2.4-45.01-52.36-68.69-56.51-70.57-41.61-18.98-84.15-2.89-116.82,9.43-32.39,12.24-55.83,28.9-69.9,40.38-5.06-5.27-17.1-16.29-35.8-20.38-33.25-7.19-59.08,13.75-62.52,16.64-12.02-8.77-31.6-21.12-58.05-29.49-24.91-7.87-71.97-22.76-114.11,1.25-22.17,12.61-53.92,42.29-50.8,77.82,3.97,45.06,61.31,68.37,90.55,74.93,60.36,13.57,109.47-19.92,119.75-27.29-26.65,39.66-57.47,81.61-93.01,124.58-23.84,28.86-47.58,55.44-70.77,79.82,4.71,7.67,12.36,17.99,24.15,27.49,19.89,16.03,40.58,20.92,51.23,22.65,15.91-15.26,32.41-33.48,48.12-55.13,56.52-77.98,72.95-159.34,78.25-209.74,5.66,2.86,15.9,7.18,29.41,7.88,14.1.76,25.11-2.71,31.07-5.07-1.32,15.98-8.89,132.01,74.88,202.94,26.82,22.67,55.25,34.22,77.19,40.36,7.6-1.75,23.95-6.62,38.97-20.83,18.11-17.14,23.15-37.42,24.64-44.87-26.39-15.61-58.52-37.93-91.01-69.3-40.77-39.4-67.88-79.25-85.38-109.85,3.98,2.57,91.69,57.51,162.54,15.96ZM886.65,1338.55c-50.49,14.13-62.61,14.64-74.86,11.74-15.76-3.71-39.07-14.79-39.57-29.77-.56-15.96,25.05-27.7,30.34-29.96,22.38-9.6,43.69-4.88,59.41-1.17,30.82,7.24,53.83,22.9,68.92,36.04-10.4,3.28-25.66,7.92-44.24,13.11ZM1066.34,1318.9c18.48-17.6,50.43-41.92,92.89-46.57,15.06-1.65,38.09-4.17,51.27,10.57,7.73,8.63,11.99,23.04,6.89,34.16-2.21,4.79-8.46,14.07-35.84,19.04-18.9,3.42-58.55,6.72-115.22-17.21Z"/>
  <path class="st3" d="M1001.82,1539.26c-1.53.04-4.66-43.99-4-86.59.44-27.89,2.64-64.19,3.98-64.15,2.73.07,2.84,150.67.02,150.74Z"/>
  <path class="st3" d="M956.95,1585.37c-2.06-.18.66-66.38,10.04-133.86,4-28.81,11.46-73.96,13.05-73.74,3.4.46-19.44,207.93-23.1,207.6Z"/>
  <path class="st3" d="M1051.32,1640.6c-2.11.39-15.36-57.27-23.47-109.54-7.31-47.17-12.51-103.41-10.45-103.69,4.02-.54,37.95,212.48,33.92,213.22Z"/>
</svg>