<?xml version="1.0" encoding="UTF-8"?><svg id="Layer_1" xmlns="http://www.w3.org/2000/svg" viewBox="0 0 354.77 389.44"><defs><style>.cls-1{fill:#231f20;fill-rule:evenodd;}</style></defs><path class="cls-1" d="M.49,177.13h159.77v-35.15H34.66V35.14h89.03v34.17h-34.18v37.54h70.27V0H0l.49,177.13H.49ZM354.28,177.13h-159.8v-35.15h125.63V35.14h-89.03v34.17h34.17v37.54h-70.27V0h159.79l-.49,177.13h0ZM.49,212.34h159.77v35.11H34.66v106.85h89.03v-34.17h-34.18v-37.54h70.27v106.84H0l.49-177.1H.49ZM354.28,212.34h-159.8v35.11h125.63v106.85h-89.03v-34.17h34.17v-37.54h-70.27v106.84h159.79l-.49-177.1h0Z"/></svg>