<?xml version="1.0" encoding="UTF-8"?><svg id="Layer_1" xmlns="http://www.w3.org/2000/svg" viewBox="0 0 484.27 476.96"><defs><style>.cls-1{fill:#f4e7ce;}.cls-2{fill:#7fb5d0;}</style></defs><path class="cls-1" d="M109.72,476.96c-3.55,0-6.92-1.59-9.17-4.34-2.25-2.75-3.15-6.36-2.45-9.85l1.64-8.16c1.11-5.53,5.97-9.51,11.62-9.51,41.19,0,78.77-51.97,103.1-142.6l31.99-119.74c3.07-12.33,2.74-17.63,2.36-19.56-19.22.05-48.48,11.03-62.65,23.2l-31.95,121.39c-.03.13-.07.26-.11.39-1.28,4.27-.95,8,.92,10.51,1.77,2.37,4.97,3.68,9.02,3.68h17.19c3.65,0,7.1,1.69,9.35,4.57,2.25,2.88,3.03,6.64,2.14,10.18l-2.48,9.81c-1.33,5.26-6.06,8.95-11.49,8.95H11.85c-3.65,0-7.1-1.68-9.34-4.56s-3.04-6.63-2.16-10.17l2.45-9.81c1.32-5.28,6.06-8.98,11.5-8.98h17.19c10.95,0,22.69-9.34,26.24-20.86L125.54,48.98c1.09-4.44.57-8.32-1.48-10.94-2.4-3.07-6.29-3.72-9.14-3.72h-17.16c-3.76,0-7.3-1.78-9.53-4.81-2.23-3.02-2.9-6.93-1.8-10.52l3.26-10.62c1.53-4.98,6.12-8.37,11.33-8.37h166.92c3.76,0,7.3,1.79,9.54,4.82,2.23,3.03,2.9,6.94,1.78,10.54l-3.29,10.62c-1.54,4.96-6.13,8.35-11.32,8.35h-17.16c-10.95,0-22.55,9.39-25.33,20.49-.02.08-21.07,77.75-21.07,77.75,21.79-12.55,48.22-19.23,77.29-19.23,25.68,0,46.13,11.13,56.79,30,13.54-9.49,34.16-18.8,62.89-18.8,5.73,0,11.66.38,17.62,1.13,23.56,2.97,44.22,9.9,56.57,14.05,1.4.47,2.69.9,3.86,1.29,5.5,1.81,8.88,7.32,8.01,13.04l-10.54,69.3c-.89,5.85-5.93,10.07-11.7,10.07-.5,0-1-.03-1.5-.09l-7.78-.99c-3.34-.42-6.35-2.25-8.26-5.03s-2.56-6.23-1.77-9.51c.06-.27,6.78-29.55-5.65-47.46-5.42-7.81-13.84-12.33-25.73-13.83-1.14-.14-2.3-.22-3.44-.22-12.77,0-23.18,9.21-26.57,17.93-3.59,10.69,6.52,23.05,23.56,42.1,22.5,25.15,50.5,56.44,35.09,99.61-12.26,35.72-47.56,57.04-94.45,57.04-7.05,0-14.45-.48-21.97-1.43-11.85-1.49-24.12-4.38-37.28-8.79-47.71,78.68-130.81,114.2-176.41,114.2ZM303.61,327.99c5.24,7.15,13.04,11.3,23.68,12.63,2.04.26,4.03.39,5.93.39,15.22,0,23.55-8.34,26.26-16.15,3.27-9.28-7.99-22.09-21.04-36.92-5.41-6.15-11.18-12.71-16.58-19.79l-7.61,28.22c-2.93,10.9-6.5,21.51-10.65,31.62Z"/><path class="cls-2" d="M414.21,137.42c-40.01-5.03-67.99,9-84.12,25.73-4.98-23.15-23.48-37.96-51.71-37.96-41.12,0-75.93,14.38-98.22,39.3l30.51-112.55c4.09-16.38,20.45-29.47,36.83-29.47h17.16l3.29-10.62H101.02l-3.26,10.62h17.16c16.38,0,26.18,13.09,22.09,29.47l-67.89,252.83c-4.93,16.35-21.28,29.45-37.63,29.45H14.3l-2.45,9.81h166.89l2.48-9.81h-17.19c-16.38,0-26.18-13.09-21.28-29.45l32.83-124.73c14.94-14.79,49.54-28.69,73.35-28.69,13.9,0,13.9,14.74,9,34.37l-32.02,119.85c-29.45,109.64-73.65,151.37-114.55,151.37l-1.64,8.16c39.73,0,124.78-32.68,171.09-116.82,11.6,4.37,27.25,9.38,44.08,11.5,58.56,7.38,93.16-16.81,103.75-47.77,23.4-65.41-72.89-100.82-58.61-141.84,5.43-14.33,22.32-27.98,42.64-25.43,57.96,7.3,41.43,75.83,41.43,75.83l7.78.99,10.54-69.3c-11.07-3.64-33.14-11.68-58.21-14.84ZM370.68,328.75c-4.75,13.67-19.77,26.82-44.86,23.63-18.75-2.35-29.52-11.83-35.49-23.43,4.88-11.1,9.07-22.98,12.49-35.66l14.71-54.57c17.39,38.04,62.61,63.24,53.15,90.03Z"/><path class="cls-1" d="M321.62,98.14c-13.39,0-25.27-5.53-32.58-15.18-7.47-9.86-9.6-23.22-5.83-36.67,7.27-25.95,32.77-46.28,58.04-46.28,13.2,0,24.99,5.56,32.35,15.26,7.68,10.11,9.9,23.75,6.08,37.41-7.27,25.93-32.24,45.47-58.07,45.47Z"/><path class="cls-2" d="M341.26,11.85c-20.45,0-40.9,17.16-46.63,37.63-5.74,20.45,6.55,36.8,26.99,36.8s40.92-16.35,46.66-36.8c5.71-20.47-6.55-37.63-27.02-37.63Z"/></svg>